<?xml version="1.0" encoding="UTF-8"?>
<svg width="700pt" height="700pt" version="1.1" viewBox="0 0 700 700" xmlns="http://www.w3.org/2000/svg" xmlns:xlink="http://www.w3.org/1999/xlink">
 <defs>
  <linearGradient id="paint0_linear" x1="3.69867" y1="4.89825" x2="22.5688" y2="37.2522" gradientUnits="userSpaceOnUse">
<stop offset="0.259336" stop-color="#FFDB6E"/>
<stop offset="1" stop-color="#FFBC5E"/>
</linearGradient>
<linearGradient id="paint1_linear" x1="1.17724" y1="18.7359" x2="2.78931" y2="19.2346" gradientUnits="userSpaceOnUse">
<stop offset="0.259336" stop-color="#FFDB6E"/>
<stop offset="1" stop-color="#FFBC5E"/>
</linearGradient>
<linearGradient id="paint2_linear" x1="1.17724" y1="18.7359" x2="2.78931" y2="19.2346" gradientUnits="userSpaceOnUse">
<stop offset="0.259336" stop-color="#FFDB6E"/>
<stop offset="1" stop-color="#FFBC5E"/>
</linearGradient>
<linearGradient id="paint3_linear" x1="3.26667" y1="0.900025" x2="27.6816" y2="36.6089" gradientUnits="userSpaceOnUse">
<stop offset="0.259336" stop-color="#FFDB6E"/>
<stop offset="1" stop-color="#FFBC5E"/>
</linearGradient>
<linearGradient id="paint4_linear" x1="3.26667" y1="0.900025" x2="27.6816" y2="36.6089" gradientUnits="userSpaceOnUse">
<stop offset="0.259336" stop-color="#FFDB6E"/>
<stop offset="1" stop-color="#FFBC5E"/>
</linearGradient>
<linearGradient id="paint5_linear" x1="14.1208" y1="12.223" x2="27.511" y2="27.0155" gradientUnits="userSpaceOnUse">
<stop offset="0.259336" stop-color="#FFDB6E"/>
<stop offset="1" stop-color="#FFBC5E"/>
</linearGradient>
<linearGradient id="paint6_linear" x1="14.1208" y1="12.223" x2="27.511" y2="27.0155" gradientUnits="userSpaceOnUse">
<stop offset="0.259336" stop-color="#FFDB6E"/>
<stop offset="1" stop-color="#FFBC5E"/>
</linearGradient>
<linearGradient id="paint7_linear" x1="16.2288" y1="14.5995" x2="25.5157" y2="24.8592" gradientUnits="userSpaceOnUse">
<stop offset="0.259336" stop-color="#FFDB6E"/>
<stop offset="1" stop-color="#FFBC5E"/>
</linearGradient>
<linearGradient id="paint8_linear" x1="16.2288" y1="14.5995" x2="25.5157" y2="24.8592" gradientUnits="userSpaceOnUse">
<stop offset="0.259336" stop-color="#FFDB6E"/>
<stop offset="1" stop-color="#FFBC5E"/>
</linearGradient>
 </defs>
  <path d="m152.18 204.29h165.77v-18.613c0-6.3164 2.5859-12.062 6.7461-16.23 4.8477-4.8398 10.496-6.7812 17.242-6.7812 3.3125-38.785 30.332-38.785 57.332-38.785 20.43 0 40.871 0 40.871-30.387 0-4.6367 3.7617-8.3984 8.3984-8.3984 4.6367 0 8.3984 3.7617 8.3984 8.3984 0 47.188-28.832 47.188-57.668 47.188-18.34 0-36.688 0-40.246 21.984 5.8594 0 11.422 2.2227 15.703 6.2227 4.6836 4.3047 7.3203 10.43 7.3203 16.785v18.613h165.77c18.758 0 35.816 7.6719 48.164 20.02 12.348 12.348 20.02 29.406 20.02 48.164v134.22c0 18.738-7.6797 35.781-20.02 48.137-12.348 12.383-29.406 20.055-48.164 20.055h-395.64c-18.75 0-35.809-7.6719-48.156-20.02-12.844-13.941-20.02-28.891-20.02-48.172v-134.22c0-18.758 7.6719-35.816 20.02-48.164 12.348-12.348 29.398-20.02 48.156-20.02zm370.65 174.15h26.973c4.6016 0 8.7695 1.8711 11.785 4.8867 3.1172 3.4648 4.8867 7.0195 4.8867 11.785v26.973c0 4.6016-1.8711 8.7695-4.8867 11.785s-7.1836 4.8867-11.785 4.8867h-26.973c-4.5703 0-8.75-1.8789-11.766-4.9062-3.0352-2.9961-4.9062-7.1641-4.9062-11.766v-26.973c0-4.5586 1.8711-8.7305 4.8867-11.754 3.0625-3.0547 7.2305-4.9219 11.785-4.9219zm26.848 16.801h-26.723v26.723h26.723zm-324.96-16.801h250.53c4.6016 0 8.7695 1.8711 11.785 4.8867 3.1172 3.4648 4.8867 7.0195 4.8867 11.785v26.973c0 4.6016-1.8711 8.7695-4.8867 11.785s-7.1836 4.8867-11.785 4.8867h-250.53c-4.5781 0-8.7422-1.8867-11.762-4.8867-3.0352-3.0508-4.9219-7.2227-4.9219-11.785v-26.973c0-4.5781 1.8789-8.7305 4.8867-11.754 3.0156-3.0508 7.1953-4.9219 11.793-4.9219zm250.4 16.801h-250.28v26.723h250.28zm-324.92-16.801h26.973c4.5977 0 8.7773 1.8711 11.793 4.8867 3.1172 3.4531 4.8867 7.0312 4.8867 11.785v26.973c0 4.5625-1.8867 8.7383-4.8867 11.754-3.0547 3.043-7.2227 4.9219-11.793 4.9219h-26.973c-4.6016 0-8.7695-1.8711-11.785-4.8867s-4.8867-7.1836-4.8867-11.785v-26.973c0-4.5703 1.8789-8.75 4.9062-11.766 2.9961-3.0352 7.1641-4.9062 11.766-4.9062zm26.855 16.801h-26.727v26.723h26.727zm345.78-154.83h26.973c4.5781 0 8.7383 1.8867 11.754 4.8867 3.0508 3.0156 4.9219 7.1953 4.9219 11.793v26.973c0 4.5625-1.8867 8.7383-4.8867 11.754-3.0508 3.0352-7.2227 4.9219-11.785 4.9219h-26.973c-4.5781 0-8.7305-1.8789-11.754-4.8867-3.0508-3.0156-4.9219-7.2109-4.9219-11.785v-26.973c0-4.5977 1.8711-8.7773 4.8867-11.793 3.4648-3.1172 7.0195-4.8867 11.785-4.8867zm26.848 16.801h-26.723v26.727h26.723zm-101.37-16.801h26.965c4.5781 0 8.7422 1.8867 11.762 4.8867 3.0352 3.0508 4.9219 7.2148 4.9219 11.793v26.973c0 4.5898-1.8789 8.7695-4.8945 11.785-3.4531 3.1094-7.0391 4.8867-11.785 4.8867h-26.965c-4.6016 0-8.7852-1.8867-11.785-4.8867-3.0156-3.0156-4.8945-7.1953-4.8945-11.785v-26.973c0-4.5781 1.8867-8.7422 4.8867-11.762 3.0156-3.0508 7.1953-4.9219 11.793-4.9219zm26.848 16.801h-26.727v26.727h26.727zm-101.38-16.801h26.973c4.5781 0 8.7422 1.8867 11.762 4.8867 3.0352 3.0508 4.9219 7.2148 4.9219 11.793v26.973c0 4.5898-1.8789 8.7695-4.8945 11.785-3.4531 3.1094-7.0391 4.8867-11.785 4.8867h-26.973c-4.5625 0-8.7305-1.8789-11.754-4.8867-3.0352-3.0508-4.9219-7.2227-4.9219-11.785v-26.973c0-4.5977 1.8711-8.7773 4.8867-11.793 3.4531-3.1172 7.0312-4.8867 11.785-4.8867zm26.855 16.801h-26.727v26.727h26.727zm-101.38-16.801h26.973c4.5781 0 8.7305 1.8789 11.754 4.8867 3.0508 3.0156 4.9219 7.1953 4.9219 11.793v26.973c0 4.5625-1.8867 8.7383-4.8867 11.754-3.0547 3.043-7.2227 4.9219-11.785 4.9219h-26.973c-4.5625 0-8.7383-1.8867-11.754-4.8867-3.0352-3.0508-4.9219-7.2227-4.9219-11.785v-26.973c0-4.8086 1.9961-9.1875 5.5547-12.395 2.9492-2.6523 6.8516-4.2852 11.117-4.2852zm26.848 16.801h-26.723v26.727h26.723zm-101.37-16.801h26.973c4.5898 0 8.7695 1.8789 11.785 4.8945 3.0039 3.0039 4.8867 7.1836 4.8867 11.785v26.973c0 4.5898-1.8789 8.7695-4.8945 11.785-3.0039 3.0039-7.1914 4.8867-11.781 4.8867h-26.973c-4.5781 0-8.7383-1.8867-11.754-4.8867-3.0508-3.0156-4.9219-7.2109-4.9219-11.785v-26.973c0-4.4766 2.4219-9.2617 5.543-12.383 2.957-2.6719 6.8711-4.3008 11.133-4.3008zm26.848 16.801h-26.723v26.727h26.723zm-101.38-16.801h26.973c4.5703 0 8.7383 1.8789 11.762 4.8867 3.0352 3.0508 4.9219 7.2148 4.9219 11.793v26.973c0 4.5898-1.8789 8.7695-4.8945 11.785-3.4531 3.1094-7.0391 4.8867-11.785 4.8867h-26.973c-4.5625 0-8.7383-1.8867-11.754-4.8867-3.0352-3.0508-4.9219-7.2227-4.9219-11.785v-26.973c0-4.8086 1.9961-9.1875 5.5547-12.395 2.9492-2.6523 6.8516-4.2852 11.117-4.2852zm26.855 16.801h-26.727v26.727h26.727zm308.52 52.219h26.973c4.8086 0 9.1875 1.9961 12.395 5.5547 2.6523 2.957 4.2852 6.8516 4.2852 11.117v26.973c0 4.5625-1.8867 8.7383-4.8867 11.754-3.0508 3.0352-7.2148 4.9219-11.793 4.9219h-26.973c-4.5781 0-8.7695-1.8711-11.785-4.8867-3.1172-3.4609-4.8867-7.0234-4.8867-11.785v-26.973c0-4.5703 1.8789-8.75 4.9062-11.766 2.9961-3.0352 7.1641-4.9062 11.766-4.9062zm26.855 16.801h-26.727v26.723h26.727zm-101.38-16.801h26.973c4.6016 0 8.7695 1.8711 11.785 4.8867 3.1172 3.4648 4.8867 7.0195 4.8867 11.785v26.973c0 4.6016-1.8711 8.7695-4.8867 11.785s-7.1836 4.8867-11.785 4.8867h-26.973c-4.5781 0-8.7695-1.8711-11.785-4.8867-3.1172-3.4609-4.8867-7.0234-4.8867-11.785v-26.973c0-4.5703 1.8789-8.75 4.9062-11.766 2.9961-3.0352 7.1641-4.9062 11.766-4.9062zm26.848 16.801h-26.723v26.723h26.723zm-101.37-16.801h26.973c4.7969 0 9.1797 1.9922 12.375 5.543 2.6719 2.957 4.3008 6.8789 4.3008 11.133v26.973c0 4.6016-1.8711 8.7695-4.8867 11.785-3.0156 3.0156-7.1836 4.8867-11.785 4.8867h-26.973c-4.5781 0-8.75-1.8789-11.766-4.9062-3.0352-2.9961-4.9062-7.1641-4.9062-11.766v-26.973c0-4.5586 1.8711-8.7305 4.8867-11.754 3.0625-3.0547 7.2227-4.9219 11.785-4.9219zm26.848 16.801h-26.723v26.723h26.723zm-101.37-16.801h26.973c4.5781 0 8.7695 1.8711 11.785 4.8867 3.1172 3.4531 4.8867 7.0312 4.8867 11.785v26.973c0 4.5625-1.8867 8.7383-4.8867 11.754-3.0547 3.043-7.2227 4.9219-11.785 4.9219h-26.973c-4.8086 0-9.1875-1.9961-12.395-5.5547-2.6523-2.9492-4.2852-6.8516-4.2852-11.117v-26.973c0-4.5703 1.8789-8.75 4.9062-11.766 2.9961-3.0352 7.1758-4.9062 11.773-4.9062zm26.848 16.801h-26.727v26.723h26.727zm-101.38-16.801h26.973c4.6016 0 8.7695 1.8711 11.785 4.8867 3.1172 3.4648 4.8867 7.0195 4.8867 11.785v26.973c0 4.5781-1.8867 8.7383-4.8867 11.754-3.0156 3.0508-7.2109 4.9219-11.785 4.9219h-26.973c-4.6016 0-8.7695-1.8711-11.785-4.8867-3.0156-3.0156-4.8867-7.1836-4.8867-11.785v-26.973c0-4.5703 1.8789-8.75 4.9062-11.766 2.9961-3.0352 7.1641-4.9062 11.766-4.9062zm26.848 16.801h-26.723v26.723h26.723zm120.45-121.94h30.5v-18.613c0-1.6992-0.70703-3.2617-1.8242-4.3789l-0.29297-0.30469c-1.0781-0.94531-2.5117-1.5273-4.0859-1.5273h-18.082c-1.7148 0-3.2812 0.69531-4.3984 1.8125-1.1172 1.1172-1.8125 2.6836-1.8125 4.3984v18.613zm213.06 16.801h-395.64c-14.121 0-26.973 5.793-36.277 15.102-9.3047 9.3047-15.102 22.164-15.102 36.285v134.22c0 13.93 5.6172 26.621 14.684 35.902 10.59 9.9219 21.918 15.492 36.695 15.492h395.64c14.121 0 26.98-5.793 36.285-15.102 9.3203-9.293 15.102-22.156 15.102-36.293v-134.22c0-14.121-5.793-26.98-15.102-36.285-9.3047-9.3047-22.164-15.102-36.285-15.102z"/>
  <defs>
  <linearGradient id="paint0_linear" x1="3.69867" y1="4.89825" x2="22.5688" y2="37.2522" gradientUnits="userSpaceOnUse">
<stop offset="0.259336" stop-color="#FFDB6E"/>
<stop offset="1" stop-color="#FFBC5E"/>
</linearGradient>
<linearGradient id="paint1_linear" x1="1.17724" y1="18.7359" x2="2.78931" y2="19.2346" gradientUnits="userSpaceOnUse">
<stop offset="0.259336" stop-color="#FFDB6E"/>
<stop offset="1" stop-color="#FFBC5E"/>
</linearGradient>
<linearGradient id="paint2_linear" x1="1.17724" y1="18.7359" x2="2.78931" y2="19.2346" gradientUnits="userSpaceOnUse">
<stop offset="0.259336" stop-color="#FFDB6E"/>
<stop offset="1" stop-color="#FFBC5E"/>
</linearGradient>
<linearGradient id="paint3_linear" x1="3.26667" y1="0.900025" x2="27.6816" y2="36.6089" gradientUnits="userSpaceOnUse">
<stop offset="0.259336" stop-color="#FFDB6E"/>
<stop offset="1" stop-color="#FFBC5E"/>
</linearGradient>
<linearGradient id="paint4_linear" x1="3.26667" y1="0.900025" x2="27.6816" y2="36.6089" gradientUnits="userSpaceOnUse">
<stop offset="0.259336" stop-color="#FFDB6E"/>
<stop offset="1" stop-color="#FFBC5E"/>
</linearGradient>
<linearGradient id="paint5_linear" x1="14.1208" y1="12.223" x2="27.511" y2="27.0155" gradientUnits="userSpaceOnUse">
<stop offset="0.259336" stop-color="#FFDB6E"/>
<stop offset="1" stop-color="#FFBC5E"/>
</linearGradient>
<linearGradient id="paint6_linear" x1="14.1208" y1="12.223" x2="27.511" y2="27.0155" gradientUnits="userSpaceOnUse">
<stop offset="0.259336" stop-color="#FFDB6E"/>
<stop offset="1" stop-color="#FFBC5E"/>
</linearGradient>
<linearGradient id="paint7_linear" x1="16.2288" y1="14.5995" x2="25.5157" y2="24.8592" gradientUnits="userSpaceOnUse">
<stop offset="0.259336" stop-color="#FFDB6E"/>
<stop offset="1" stop-color="#FFBC5E"/>
</linearGradient>
<linearGradient id="paint8_linear" x1="16.2288" y1="14.5995" x2="25.5157" y2="24.8592" gradientUnits="userSpaceOnUse">
<stop offset="0.259336" stop-color="#FFDB6E"/>
<stop offset="1" stop-color="#FFBC5E"/>
</linearGradient>
 </defs>

</svg>
